HIERARCHY
ROOT joint_Root
{
	OFFSET 0.0 0.0 0.0
	CHANNELS 6 Xposition Yposition Zposition Zrotation Xrotation Yrotation 
	JOINT Hips
	{
		OFFSET 4.5925 91.4895 -427.239
		CHANNELS 6 Xposition Yposition Zposition Zrotation Xrotation Yrotation 
		JOINT Spine
		{
			OFFSET 15.7357 0.0 0.0
			CHANNELS 6 Xposition Yposition Zposition Zrotation Xrotation Yrotation 
			JOINT Chest
			{
				OFFSET 8.98455 -0.406207 0.0
				CHANNELS 6 Xposition Yposition Zposition Zrotation Xrotation Yrotation 
				JOINT Neck
				{
					OFFSET 16.3773 0.0 0.0
					CHANNELS 6 Xposition Yposition Zposition Zrotation Xrotation Yrotation 
					JOINT Head
					{
						OFFSET 6.45672 0.0 0.0
						CHANNELS 6 Xposition Yposition Zposition Zrotation Xrotation Yrotation 
						End Site
						{
							OFFSET 0.0 0.0 0.0
						}
					}
				}
				JOINT Shoulder_L
				{
					OFFSET 12.9942 -0.242716 4.98039
					CHANNELS 6 Xposition Yposition Zposition Zrotation Xrotation Yrotation 
					JOINT UpperArm_L
					{
						OFFSET 5.34809 0.0 0.0
						CHANNELS 6 Xposition Yposition Zposition Zrotation Xrotation Yrotation 
						JOINT LowerArm_L
						{
							OFFSET 24.3286 1.87007e-05 0.0
							CHANNELS 6 Xposition Yposition Zposition Zrotation Xrotation Yrotation 
							JOINT Hand_L
							{
								OFFSET 22.2916 0.0 0.0
								CHANNELS 6 Xposition Yposition Zposition Zrotation Xrotation Yrotation 
								End Site
								{
									OFFSET 0.0 0.0 0.0
								}
							}
						}
					}
				}
				JOINT Shoulder_R
				{
					OFFSET 12.9945 -0.242716 -4.98039
					CHANNELS 6 Xposition Yposition Zposition Zrotation Xrotation Yrotation 
					JOINT UpperArm_R
					{
						OFFSET -5.34813 0.0 0.0
						CHANNELS 6 Xposition Yposition Zposition Zrotation Xrotation Yrotation 
						JOINT LowerArm_R
						{
							OFFSET -24.3289 0.000322201 0.0
							CHANNELS 6 Xposition Yposition Zposition Zrotation Xrotation Yrotation 
							JOINT Hand_R
							{
								OFFSET -22.2915 -0.000108084 0.0
								CHANNELS 6 Xposition Yposition Zposition Zrotation Xrotation Yrotation 
								End Site
								{
									OFFSET 0.0 0.0 0.0
								}
							}
						}
					}
				}
			}
		}
		JOINT UpperLeg_L
		{
			OFFSET -2.19248 -6.46944 0.0
			CHANNELS 6 Xposition Yposition Zposition Zrotation Xrotation Yrotation 
			JOINT LowerLeg_L
			{
				OFFSET 39.0811 0.0 -1.23785e-05
				CHANNELS 6 Xposition Yposition Zposition Zrotation Xrotation Yrotation 
				JOINT Foot_L
				{
					OFFSET 40.9854 0.0 -1.26872e-05
					CHANNELS 6 Xposition Yposition Zposition Zrotation Xrotation Yrotation 
					JOINT Toes_L
					{
						OFFSET 11.7543 0.0 0.0
						CHANNELS 6 Xposition Yposition Zposition Zrotation Xrotation Yrotation 
						End Site
						{
							OFFSET 0.0 0.0 0.0
						}
					}
				}
			}
		}
		JOINT UpperLeg_R
		{
			OFFSET -2.19251 6.46944 0.0
			CHANNELS 6 Xposition Yposition Zposition Zrotation Xrotation Yrotation 
			JOINT LowerLeg_R
			{
				OFFSET -39.0811 -0.00228153 -0.0401928
				CHANNELS 6 Xposition Yposition Zposition Zrotation Xrotation Yrotation 
				JOINT Foot_R
				{
					OFFSET -40.9854 0.0 0.0
					CHANNELS 6 Xposition Yposition Zposition Zrotation Xrotation Yrotation 
					JOINT Toes_R
					{
						OFFSET -11.7543 0.0 0.0
						CHANNELS 6 Xposition Yposition Zposition Zrotation Xrotation Yrotation 
						End Site
						{
							OFFSET 0.0 0.0 0.0
						}
					}
				}
			}
		}
	}
}
MOTION
Frames:	4
Frame Time:	0.0333333
0.000000 0.000000 0.000000 0.000000 0.000000 -0.000000 -2.185020 80.751200 -2.471150 86.039900 -3.260980 10.902700 15.735700 0.000005 -0.000001 89.289200 79.677000 -89.430900 8.984550 -0.406207 -0.000000 12.878200 -0.259897 -0.254149 16.377300 -0.000001 -0.000001 -6.507630 -3.937550 1.120180 6.456720 -0.000001 -0.000000 -5.550940 -4.221330 2.427740 12.994200 -0.242716 4.980390 -90.953900 3.291850 -73.829700 5.348090 -0.000007 -0.000001 -63.986000 33.984800 -7.346940 24.328600 0.000019 0.000005 9.203210 25.932800 -20.332000 22.291600 -0.000001 0.000005 5.286140 5.367730 -1.915170 12.994500 -0.242716 -4.980390 88.790400 8.725940 -82.076200 -5.348130 -0.000001 -0.000004 -60.467100 37.497200 -7.164850 -24.328900 0.000322 -0.000009 2.990280 10.786000 -15.602800 -22.291500 -0.000108 -0.000004 -0.291292 5.350960 -1.405980 -2.192480 -6.469440 -0.000000 -169.893000 -8.462630 -18.533700 39.081100 -0.000007 -0.000012 -0.727118 0.308264 67.026900 40.985400 -0.000006 -0.000013 -1.271360 3.254550 -87.073500 11.754300 -0.000000 0.000003 -0.000352 -0.002970 -16.687600 -2.192510 6.469440 -0.000001 -178.484000 11.546900 162.537000 -39.081100 -0.002282 -0.040193 0.098491 -0.043319 65.562700 -40.985400 0.000008 0.000006 8.770560 3.338620 -87.104900 -11.754300 -0.000006 -0.000006 -0.597525 -0.734741 -16.871100
0.000000 0.000000 0.000000 0.000000 0.000000 -0.000000 -2.284270 82.773600 -1.790420 86.643000 -3.140200 10.907800 15.735700 0.000005 -0.000001 89.207900 80.898500 -89.712100 8.984550 -0.406207 -0.000000 10.434300 -0.261646 -0.983721 16.377300 -0.000001 -0.000001 -4.085430 -3.838940 1.202840 6.456720 -0.000001 -0.000000 -3.561580 -4.143620 2.125080 12.994200 -0.242716 4.980390 -90.603700 2.002590 -73.217400 5.348090 -0.000007 -0.000001 -56.759300 31.655600 -15.477300 24.328600 0.000019 0.000005 9.586660 22.825200 -23.527700 22.291600 -0.000001 0.000005 7.224880 5.388210 -2.556130 12.994500 -0.242716 -4.980390 88.974200 7.064490 -81.715600 -5.348130 -0.000001 -0.000004 -55.053000 37.672100 -14.598400 -24.328900 0.000322 -0.000009 2.483790 7.823980 -17.685800 -22.291500 -0.000108 -0.000004 -0.418656 5.370980 -2.015310 -2.192480 -6.469440 -0.000000 -170.529000 -8.334990 -15.158200 39.081100 -0.000007 -0.000012 -0.666253 0.365426 61.257700 40.985400 -0.000006 -0.000013 -1.487230 3.171360 -84.713900 11.754300 -0.000000 0.000003 -0.000300 -0.002598 -16.674300 -2.192510 6.469440 -0.000001 -179.289000 11.892500 165.755000 -39.081100 -0.002282 -0.040193 0.085613 -0.047321 60.136000 -40.985400 0.000008 0.000006 8.633760 4.146890 -84.762000 -11.754300 -0.000006 -0.000006 -0.575120 -0.706396 -17.081700
0.000000 0.000000 0.000000 0.000000 0.000000 -0.000000 -2.269800 85.413600 -1.141120 87.158100 -2.765390 10.753800 15.735700 0.000005 -0.000001 88.527600 82.390600 -89.332400 8.984550 -0.406207 -0.000000 7.445620 -0.387316 -1.582640 16.377300 -0.000001 -0.000001 -0.021485 -3.713530 1.304390 6.456720 -0.000001 -0.000000 -0.631065 -3.964920 1.608110 12.994200 -0.242716 4.980390 -90.049700 0.157121 -72.404300 5.348090 -0.000007 -0.000001 -48.025200 25.940900 -26.735800 24.328600 0.000019 0.000005 11.348900 23.565300 -26.657600 22.291600 -0.000001 0.000005 8.017200 5.391080 -2.649830 12.994500 -0.242716 -4.980390 89.273900 4.508760 -80.839200 -5.348130 -0.000001 -0.000004 -47.055200 34.211700 -25.043300 -24.328900 0.000322 -0.000009 2.417870 6.089550 -21.711400 -22.291500 -0.000108 -0.000004 0.272053 5.389490 -2.597960 -2.192480 -6.469440 -0.000000 -171.238000 -8.186710 -10.846900 39.081100 -0.000007 -0.000012 -0.537683 0.404091 53.074900 40.985400 -0.000006 -0.000013 -1.571870 3.200890 -81.075200 11.754300 -0.000000 0.000003 -0.000214 -0.001960 -16.651300 -2.192510 6.469440 -0.000001 179.630000 13.283200 169.966000 -39.081100 -0.002282 -0.040193 0.071587 -0.052705 52.363400 -40.985400 0.000008 0.000006 8.699830 5.983840 -81.040400 -11.754300 -0.000006 -0.000006 -0.696740 -0.853738 -17.429300
0.000000 0.000000 0.000000 0.000000 0.000000 -0.000000 -2.269810 87.857300 -0.426574 87.781100 -2.713690 10.786300 15.735700 0.000005 -0.000001 88.774500 83.847100 -89.817700 8.984550 -0.406207 -0.000000 4.535770 -0.233344 -2.074780 16.377300 -0.000001 -0.000001 4.757080 -3.751720 1.333160 6.456720 -0.000001 -0.000000 2.923290 -3.694460 0.834644 12.994200 -0.242716 4.980390 -89.387500 -1.917290 -72.279500 5.348090 -0.000007 -0.000001 -41.648500 15.254100 -37.092800 24.328600 0.000019 0.000005 12.089400 21.914500 -29.853300 22.291600 -0.000001 0.000005 8.797040 5.370770 -2.014190 12.994500 -0.242716 -4.980390 89.698600 1.712000 -80.013600 -5.348130 -0.000001 -0.000004 -38.629400 25.507200 -35.806800 -24.328900 0.000322 -0.000009 3.284250 6.518270 -26.820000 -22.291500 -0.000108 -0.000004 3.082700 5.393800 -2.728940 -2.192480 -6.469440 -0.000000 -171.911000 -8.381820 -5.868180 39.081100 -0.000007 -0.000012 -0.402050 0.414101 44.155000 40.985400 -0.000006 -0.000013 -1.694760 3.283150 -77.121000 11.754300 -0.000000 0.000003 -0.000145 -0.001413 -16.631300 -2.192510 6.469440 -0.000001 178.241000 14.879400 174.722000 -39.081100 -0.002282 -0.040193 0.053618 -0.052027 44.062400 -40.985400 0.000008 0.000006 8.543340 8.509940 -77.136300 -11.754300 -0.000006 -0.000006 -0.679177 -0.829240 -17.871700
